<?xml version="1.0" encoding="utf-8"?>
<!-- Generator: Adobe Illustrator 27.6.1, SVG Export Plug-In . SVG Version: 6.00 Build 0)  -->
<svg version="1.1" id="Capa_1" xmlns="http://www.w3.org/2000/svg" xmlns:xlink="http://www.w3.org/1999/xlink" x="0px" y="0px"
	 viewBox="0 0 976.4 769.3" style="enable-background:new 0 0 976.4 769.3;" xml:space="preserve">
<style type="text/css">
	.st0{fill:#FFC600;}
	.st1{fill:#510C76;}
	.st2{fill:#FEFEFE;}
	.st3{fill:#FFFFFF;}
	.st4{fill:#4C2770;}
</style>
<g>
	<g>
		<g>
			<path id="XMLID_00000088099519696367661910000002544323780469280176_" class="st4" d="M960.8,384.6
				c0,205.3-211.6,371.7-472.7,371.7c-261,0-472.6-166.4-472.6-371.7C15.6,179.4,227.1,13,488.2,13
				C749.3,13,960.8,179.4,960.8,384.6z"/>
		</g>
	</g>
	<g>
		<g>
			<path class="st2" d="M488.2,727C244.8,727,46.8,573.4,46.8,384.6c0-188.8,198-342.4,441.4-342.4c243.4,0,441.4,153.6,441.4,342.4
				C929.6,573.4,731.6,727,488.2,727z M488.2,50.8c-238.6,0-432.7,149.7-432.7,333.8c0,184.1,194.1,333.8,432.7,333.8
				c238.6,0,432.7-149.7,432.7-333.8C920.9,200.6,726.8,50.8,488.2,50.8z"/>
		</g>
	</g>
	<g>
		<g>
			<g>
				<path id="XMLID_00000082328522760467291270000013352165528226501761_" class="st0" d="M464.7,171.3c-5.1-2.9-10.4-4.4-15.8-4.4
					c-4.7,0-9.4,1.1-14.3,3.4c-0.5,0.2-1.4,0.7-2.6,1.3c-31.5,15.5-54,24.4-66.9,26.5c-4.4,0.7-11.3,1.7-20,1.7
					c-34.7,0-74.1-15.3-116.9-45.4l-2.6-2l-1.6-0.5c-0.3-0.1-1.1-0.3-2.5-0.3c-0.8,0-2.6,0.1-4.5,1.3c-2.4,1.4-4,4.4-3.9,7.3
					c0,0.6,0.1,1.2,0.2,1.8c0.3,1.5,2.3,12.3,2.7,14.5l0.7,3.5l3.3,2.2l0,0c16.1,10.4,72.2,44.1,120.2,44.3
					c22.4,0,46.6-5.4,71.8-15.9c14.2-5.9,25.3-12.2,30.7-15.1c1.2-0.7,2.5-1.4,2.7-1.5l0.3-0.1c0.2-0.1,1.1-0.3,2-0.3
					c3.7,0.1,6.1,1.3,7.4,6.3c0.2,0.8,0.3,1.6,0.3,2.3c0,2.2-0.8,3.9-2.6,5.7c-0.9,0.9-1.8,1.5-2.2,1.7c-0.2,0.1-0.3,0.2-0.4,0.2
					c-5.2,1.6-29.1,8.8-74.1,18.4c-50.3,10.8-76.8,16.8-77,16.8c-1.6,0.3-9.8,2.1-18.3,7.2c-7.4,4.4-19.8,14.5-19.7,32.9v71.4
					l26.8,13.5V290l0-0.7c0.1-2.6,0.6-10.3,14.1-15.6c8-3.1,37.3-10.7,80.5-20.8c29.8-7,57.6-13.3,65.4-15l2.2-0.5l0.1-0.1
					c15.8-4.7,25.9-13.8,28.5-25.9c0.8-4.1,1.2-8,1.2-11.6C479.7,186.8,474.4,176.7,464.7,171.3z"/>
			</g>
		</g>
		<g>
			<g>
				<path class="st0" d="M382.9,300.6c-0.1,0-0.3,0-0.6,0c-35.3,0-56.3,15.7-56.7,34c0,10.9,8.1,21.2,23,27.2
					c10.6,4.3,21.7,5.9,32.2,5.9c29.4,0,55.1-12,55.3-12.1l1.9-0.9v-15.1l-5.3,4.6c0,0,0,0-0.3,0.2c-1.9,1.4-12.8,8.3-39.6,8.3
					c-3.4,0-7.1-0.1-11-0.4c-26.7-2-31.7-9.6-32.7-13.6H440l0.1-3.1v-0.5c0-2.2-0.5-11-8.2-19.2
					C424.1,307.9,409.6,300.7,382.9,300.6z M351.2,327.5c3.5-4.1,11.5-9.7,29.2-9.8c14.5,0,22.7,3.8,27.2,7.5c1,0.8,1.8,1.6,2.5,2.3
					H351.2z"/>
			</g>
		</g>
		<g>
			<g>
				<path class="st0" d="M701.2,316.1c-7.7-8.2-22.2-15.4-48.9-15.5c-0.2,0-0.4,0-0.6,0c-35.3,0-56.3,15.7-56.7,34
					c0,10.9,8.1,21.2,23,27.2c10.5,4.3,21.6,5.9,32.2,5.9c29.4,0,55.1-12,55.3-12.1l1.9-0.9v-15.2l-5.3,4.7c0,0,0,0-0.3,0.2
					c-1.9,1.4-12.8,8.3-39.6,8.3c-3.4,0-7.1-0.1-11-0.4c-26.7-2-31.7-9.6-32.8-13.6h90.9l0.1-3.1c0,0,0-0.2,0-0.5
					C709.4,333,708.9,324.3,701.2,316.1z M620.6,327.5c3.6-4.1,11.5-9.7,29.3-9.8c14.5,0,22.6,3.8,27.2,7.5c1,0.8,1.8,1.6,2.5,2.3
					H620.6z"/>
			</g>
		</g>
		<g>
			<g>
				<path id="XMLID_00000074407015193750130850000016506963337650390454_" class="st0" d="M551.6,302L551.6,302
					c-1.9-0.1-3.8-0.2-5.6-0.2c-17.5,0-30,6.3-37.3,11.4v-5.9c0-2.5-2-4.5-4.5-4.5h-13.2c-2.5,0-4.4,2-4.4,4.5l0,51.1
					c0,2.5,2,4.5,4.5,4.5h13.2c2.5,0,4.5-2,4.5-4.5v-31.1c5-6.3,12.4-8.2,20-8.2c9.6,0,17.9,3.1,19.6,3.5c0.5,0.1,0.9,0.1,1.3,0.1
					c1.8,0,3.4-1.1,4.1-2.1c0.7-1,0.8-1.7,0.9-2l0.1-0.3v-0.3c0,0,0.2-7.4,0.5-9.7c0.1-0.6,0.1-1.1,0.1-1.5c0-1.3-0.3-2.5-1.2-3.6
					C553.4,302.4,552.2,302.1,551.6,302z"/>
			</g>
		</g>
	</g>
	<g>
		<g>
			<g>
				<path id="XMLID_00000065065993818399968250000009413021363724444345_" class="st3" d="M435.1,259.2c-0.1-0.1-0.1-0.1-0.2-0.1
					c-0.1-0.1-0.3-0.1-0.6-0.1c-0.5,0-1.2,0.3-2,1c-1.4,1.2-3,3.3-4.8,6.3l2.2-7.3l0,0l0,0l-5.2,0.8l0.1,0.5h0l0,0
					c0.6-0.1,1-0.1,1.2-0.1c0.2,0,0.4,0,0.5,0.1c0.1,0.1,0.2,0.1,0.3,0.1c0,0,0.1,0.1,0.1,0.1c0.1,0.1,0.1,0.2,0.1,0.3
					c0,0.3-0.1,0.7-0.2,1.1c-0.1,0.3-0.2,0.7-0.3,1.2l-2.8,9.3h2.3l0,0l0,0l0.5-1.9c0.1-0.2,0.3-0.9,0.7-2.1c0.2-0.5,0.4-1,0.6-1.4
					c0.2-0.3,0.3-0.6,0.5-0.8c0.3-0.4,0.5-0.8,0.8-1.2c0.7-1,1.3-1.9,1.9-2.6c0.5-0.6,0.9-1,1.2-1.2c0.1-0.1,0.3-0.1,0.5-0.1
					c0,0,0.1,0,0.1,0c0.1,0,0.1,0,0.2,0.1c0.1,0,0.1,0.2,0.2,0.4c0,0.3,0.1,0.5,0.3,0.7c0.1,0.1,0.4,0.2,0.6,0.2
					c0.5,0,0.8-0.2,1.1-0.7c0.3-0.6,0.5-1.2,0.5-1.9c0-0.2,0-0.4-0.1-0.5C435.2,259.4,435.2,259.3,435.1,259.2z"/>
			</g>
		</g>
		<g>
			<g>
				<path class="st3" d="M451.1,259c-1.5,0-2.9,0.4-4.3,1.3c-1.4,0.9-2.6,2.1-3.5,3.6c-0.9,1.6-1.4,3.1-1.4,4.6
					c0,1.1,0.4,2.2,1.1,3.1c0.7,0.9,1.9,1.4,3.3,1.4c2.2,0,4.4-1.2,6.8-3.5l-0.3-0.4c-1.3,1-2.3,1.7-3,2c-0.7,0.3-1.4,0.4-2.1,0.4
					c-0.9,0-1.7-0.3-2.3-0.9c-0.6-0.6-1-1.4-1-2.2c0-0.4,0-0.8,0.1-1.3c2-0.2,3.6-0.5,4.7-0.9c1.7-0.6,3-1.4,3.9-2.4
					c0.7-0.8,1-1.6,1-2.4c0-0.6-0.3-1.1-0.8-1.5C453,259.2,452.2,259,451.1,259z M451.1,263.3c-0.6,0.7-1.5,1.4-2.8,2
					c-0.9,0.4-2.1,0.7-3.6,0.9c0.5-2.1,1.4-3.7,2.5-4.8c1.2-1.1,2.2-1.6,3.2-1.6c0.5,0,0.9,0.1,1.1,0.4c0.3,0.2,0.4,0.6,0.4,1.1
					C452.1,261.8,451.8,262.5,451.1,263.3z"/>
			</g>
		</g>
		<g>
			<g>
				<path class="st3" d="M473.2,259c-0.9,0-1.8,0.2-2.6,0.8c-0.9,0.5-1.9,1.4-3,2.7l1-3.5l-5.2,0.8v0.6c0.5-0.1,0.9-0.1,1.2-0.1
					c0.3,0,0.6,0.1,0.7,0.2c0.2,0.2,0.2,0.4,0.2,0.7c0,0.2-0.1,0.7-0.3,1.5l-3.8,13.2c-0.4,1.3-0.7,2.1-1.1,2.3
					c-0.3,0.3-0.9,0.5-1.9,0.5l-0.1,0.5h7.1l0.1-0.5c-0.8,0-1.3,0-1.5-0.1c-0.3-0.1-0.5-0.2-0.6-0.4c-0.1-0.2-0.2-0.3-0.2-0.5
					c0-0.2,0.1-0.7,0.3-1.5l1.1-3.9c0.5,0.3,0.9,0.5,1.3,0.6c0.4,0.1,0.8,0.2,1.3,0.2c2.4,0,4.5-1.2,6.3-3.4
					c1.8-2.3,2.7-4.5,2.7-6.8c0-1.1-0.3-2-1-2.8C474.9,259.3,474.1,259,473.2,259z M473.4,265.7c-0.3,1-0.7,1.9-1.1,2.6
					c-0.4,0.7-0.9,1.4-1.4,2c-0.5,0.5-1,1-1.6,1.2c-0.6,0.3-1.1,0.5-1.6,0.5c-1.1,0-1.9-0.4-2.5-1.1l1.3-4.5
					c0.5-1.7,1.3-3.1,2.3-4.3c1.1-1.2,2.1-1.9,3.2-1.9c0.5,0,0.9,0.2,1.3,0.7c0.4,0.4,0.5,1,0.5,1.8
					C473.9,263.7,473.7,264.7,473.4,265.7z"/>
			</g>
		</g>
		<g>
			<g>
				<path class="st3" d="M494.2,259c-1.3,0-2.7,0.4-4.1,1.3c-1.4,0.9-2.5,2-3.4,3.5c-0.9,1.5-1.2,3-1.2,4.5c0,1.4,0.4,2.5,1.3,3.4
					c0.9,0.9,2,1.3,3.4,1.3c1.3,0,2.7-0.5,4.1-1.3c1.4-0.9,2.5-2,3.3-3.5c0.8-1.5,1.2-3,1.2-4.5c0-1.4-0.4-2.5-1.3-3.4
					C496.6,259.4,495.5,259,494.2,259z M494.4,269c-1.2,2.1-2.6,3.1-4,3.1c-0.7,0-1.3-0.3-1.8-0.8c-0.5-0.5-0.7-1.2-0.7-2.2
					c0-2.1,0.6-4.2,1.8-6.3c1.2-2.1,2.6-3.2,4.1-3.2c0.7,0,1.3,0.3,1.8,0.7c0.4,0.5,0.7,1.2,0.7,2.1
					C496.3,264.8,495.6,266.9,494.4,269z"/>
			</g>
		</g>
		<g>
			<g>
				<path id="XMLID_00000065767039276034164080000008867226565687727492_" class="st3" d="M516.7,259.6c-0.2,0-0.5-0.1-1-0.3
					c-0.5-0.2-0.8-0.3-1-0.3c-0.2-0.1-0.5-0.1-0.9-0.1c-1.1,0-2,0.3-2.7,1c-0.7,0.7-1.1,1.5-1.1,2.5c0,0.5,0.2,1.1,0.4,1.6
					c0.3,0.5,0.9,1.4,1.8,2.4c0.9,1,1.5,1.9,1.8,2.5c0.1,0.3,0.2,0.7,0.2,1.1c0,0.6-0.2,1.2-0.7,1.6c-0.4,0.4-1,0.7-1.8,0.7
					c-1,0-1.8-0.3-2.4-1c-0.6-0.6-0.9-1.7-1-3.2h-0.5l-0.9,4.9h0.6c0.2-0.5,0.6-0.7,1-0.7c0.2,0,0.5,0.1,0.8,0.2
					c0.9,0.3,1.8,0.5,2.5,0.5c1.3,0,2.4-0.4,3.3-1.2c0.9-0.8,1.3-1.8,1.3-2.8c0-0.6-0.2-1.3-0.5-2c-0.4-0.7-1.2-1.8-2.5-3.2
					c-0.5-0.5-0.8-1-1-1.3c-0.1-0.3-0.2-0.6-0.2-1c0-0.5,0.2-0.9,0.6-1.2c0.3-0.3,0.8-0.5,1.4-0.5c0.8,0,1.5,0.3,2,0.9
					c0.5,0.6,0.8,1.6,0.9,2.9h0.5l0.9-4.6h-0.6C517.5,259.4,517.1,259.6,516.7,259.6z"/>
			</g>
		</g>
		<g>
			<g>
				<path id="XMLID_00000145742228934299158340000005768618741410985127_" class="st3" d="M534.4,255.2h-0.6
					c-0.9,1.5-1.7,2.5-2.5,3.1c-0.7,0.6-1.6,1.1-2.7,1.4l-0.1,0.6h2.3l-2.6,8.7c-0.3,1.1-0.5,2-0.5,2.5c0,0.4,0.1,0.8,0.4,1
					c0.3,0.3,0.7,0.4,1.1,0.4c0.6,0,1.2-0.2,1.7-0.6c0.8-0.5,1.7-1.5,2.6-2.8l-0.5-0.4c-0.9,1-1.4,1.7-1.6,1.9
					c-0.4,0.3-0.7,0.5-1,0.5c-0.1,0-0.2,0-0.3-0.1c-0.1-0.1-0.1-0.2-0.1-0.4c0-0.3,0.1-0.9,0.4-1.9l2.6-8.9h2.3l0.3-0.9h-2.4
					L534.4,255.2z"/>
			</g>
		</g>
		<g>
			<g>
				<path class="st3" d="M552.3,259c-1.5,0-2.9,0.4-4.3,1.3c-1.4,0.9-2.5,2.1-3.5,3.6c-0.9,1.6-1.4,3.1-1.4,4.6
					c0,1.1,0.4,2.2,1.1,3.1c0.8,0.9,1.8,1.4,3.3,1.4c2.2,0,4.4-1.2,6.8-3.5l-0.3-0.4c-1.3,1-2.3,1.7-3,2c-0.7,0.3-1.4,0.4-2.1,0.4
					c-0.9,0-1.7-0.3-2.3-0.9c-0.6-0.6-0.9-1.4-0.9-2.2c0-0.4,0-0.8,0.1-1.3c2-0.2,3.7-0.5,4.8-0.9c1.7-0.6,3-1.4,3.9-2.4
					c0.7-0.8,1-1.6,1-2.4c0-0.6-0.3-1.1-0.8-1.5C554.2,259.2,553.4,259,552.3,259z M552.4,263.3c-0.6,0.7-1.5,1.4-2.8,2
					c-1,0.4-2.1,0.7-3.6,0.9c0.5-2.1,1.4-3.7,2.5-4.8c1.2-1.1,2.3-1.6,3.3-1.6c0.5,0,0.9,0.1,1.1,0.4c0.3,0.2,0.4,0.6,0.4,1.1
					C553.3,261.8,553,262.5,552.4,263.3z"/>
			</g>
		</g>
		<g>
			<g>
				<path id="XMLID_00000011730519277126783800000017769974972462961592_" class="st3" d="M574.5,259c-0.5,0-1.2,0.3-2,1
					c-1.4,1.2-3,3.3-4.8,6.3l2.2-7.3l-5.2,0.8l0.1,0.5c0.6-0.1,1-0.1,1.2-0.1c0.3,0,0.6,0.1,0.8,0.2c0.2,0.1,0.2,0.3,0.2,0.5
					c0,0.5-0.1,1.2-0.5,2.3l-2.8,9.3h2.3l0.5-1.9c0.1-0.2,0.3-0.9,0.7-2.1c0.3-0.8,0.7-1.6,1.1-2.3c1-1.6,1.8-2.8,2.7-3.8
					c0.5-0.6,0.9-1,1.2-1.2c0.2-0.1,0.3-0.1,0.5-0.1c0.1,0,0.2,0,0.3,0.1c0.1,0,0.1,0.2,0.1,0.4c0,0.3,0.1,0.5,0.3,0.7
					c0.2,0.1,0.4,0.2,0.6,0.2c0.5,0,0.8-0.2,1-0.7c0.4-0.6,0.5-1.2,0.5-1.9c0-0.4-0.1-0.6-0.3-0.9C575.1,259,574.8,259,574.5,259z"
					/>
			</g>
		</g>
		<g>
			<g>
				<polygon id="XMLID_00000106843293896093649090000009707367979895723430_" class="st3" points="587.7,256.6 588.2,256.6 
					592.6,251.5 589.3,251.5 				"/>
			</g>
		</g>
		<g>
			<g>
				<path id="XMLID_00000088106940861907367920000012393888222058176676_" class="st3" d="M589.4,259l-5.2,0.8v0.6
					c0.7-0.1,1.2-0.2,1.4-0.2c0.3,0,0.5,0.1,0.6,0.2c0.1,0.2,0.2,0.3,0.2,0.5c0,0.3-0.2,1-0.5,2.1l-1.9,6.7
					c-0.2,0.9-0.4,1.5-0.4,1.8c0,0.4,0.1,0.7,0.4,0.9c0.3,0.2,0.6,0.4,1,0.4c0.6,0,1.3-0.3,2-0.8c0.9-0.7,1.7-1.6,2.4-2.6l-0.5-0.4
					c-0.6,0.8-1.2,1.5-1.8,1.9c-0.2,0.1-0.4,0.2-0.5,0.2c-0.1,0-0.3,0-0.3-0.1c-0.1-0.1-0.1-0.2-0.1-0.4c0-0.1,0.1-0.5,0.3-1.2
					L589.4,259z"/>
			</g>
		</g>
		<g>
			<g>
				<path class="st3" d="M609.6,269.1l2.9-10.2l-2.4,0.3l-0.5,1.7c-0.2-0.7-0.5-1.3-0.9-1.6c-0.4-0.3-0.9-0.5-1.5-0.5
					c-1,0-2.1,0.4-3.3,1.2c-1.5,1.1-2.7,2.5-3.7,4.3c-1,1.8-1.4,3.4-1.4,5.1c0,1.1,0.3,1.9,0.8,2.5c0.5,0.6,1.2,0.9,1.9,0.9
					c0.8,0,1.5-0.3,2.3-0.8c1.1-0.7,2.3-1.9,3.6-3.6l-0.3,1.1c-0.2,0.8-0.3,1.5-0.3,1.9c0,0.5,0.1,0.7,0.3,1c0.2,0.2,0.5,0.3,1,0.3
					c0.6,0,1.3-0.3,2-0.8c0.7-0.6,1.5-1.4,2.1-2.4l-0.5-0.4c-0.7,0.9-1.2,1.5-1.6,1.8c-0.2,0.1-0.4,0.2-0.5,0.2
					c-0.1,0-0.2,0-0.3-0.1c-0.1-0.1-0.2-0.2-0.2-0.4c0-0.1,0-0.2,0.1-0.3L609.6,269.1z M606.5,268.7c-1.3,1.6-2.5,2.4-3.6,2.4
					c-0.5,0-0.9-0.2-1.2-0.6c-0.4-0.4-0.5-0.9-0.5-1.6c0-1.4,0.4-2.9,1.2-4.5c0.8-1.7,1.7-3,2.7-3.8c0.7-0.6,1.4-0.9,2-0.9
					c0.6,0,1.1,0.2,1.4,0.6c0.4,0.4,0.5,1,0.5,1.8C609.1,264.4,608.2,266.6,606.5,268.7z"/>
			</g>
		</g>
		<g>
			<g>
				<path id="XMLID_00000130620809004058596880000005360989452153126551_" class="st3" d="M651.2,251.1c-0.7,0-1.5,0.2-2.3,0.7
					c-0.8,0.5-1.6,1.1-2.3,2c-0.6,0.6-1.1,1.6-1.7,2.8c-0.4,0.9-0.8,1.5-1,1.8c-0.3,0.3-0.6,0.6-0.9,0.7c-0.3,0.1-0.9,0.2-1.7,0.2
					l-0.2,1h2.6l-2.6,10.2c-0.6,2.4-0.9,3.8-1.1,4.1c-0.3,1-0.7,1.8-1,2.3c-0.4,0.5-0.8,0.9-1.3,1.2c-0.4,0.3-0.9,0.4-1.3,0.4
					c-0.2,0-0.3,0-0.4-0.1c-0.1-0.1-0.1-0.1-0.1-0.2c0-0.1,0.1-0.2,0.3-0.3c0.2-0.2,0.3-0.4,0.3-0.6c0-0.2-0.1-0.4-0.3-0.6
					c-0.2-0.2-0.4-0.2-0.7-0.2c-0.4,0-0.7,0.1-1,0.3c-0.3,0.2-0.4,0.5-0.4,0.9c0,0.4,0.2,0.7,0.5,1c0.4,0.4,0.9,0.5,1.5,0.5
					c0.9,0,1.8-0.3,2.8-1c1.2-0.9,2.3-2.4,3.4-4.6c0.8-1.6,1.5-3.8,2.2-6.7l1.7-6.6h2.2l0.3-1h-2.2c0.7-2.3,1.2-3.8,1.5-4.4
					c0.5-1.1,1.1-1.9,1.8-2.5c0.5-0.4,1-0.6,1.7-0.6c0.2,0,0.4,0,0.6,0.1c0.1,0.1,0.1,0.2,0.1,0.3c0,0.1,0,0.2-0.2,0.5
					c-0.1,0.2-0.2,0.4-0.2,0.6c0,0.3,0.1,0.5,0.2,0.7c0.2,0.2,0.5,0.3,0.8,0.3c0.3,0,0.7-0.1,0.9-0.4c0.2-0.3,0.4-0.6,0.4-0.9
					c0-0.4-0.2-0.9-0.7-1.2C652.6,251.4,652,251.1,651.2,251.1z"/>
			</g>
		</g>
		<g>
			<g>
				<path id="XMLID_00000019636540171515519170000009881583601276190096_" class="st3" d="M662.1,259l-5.2,0.8v0.6
					c0.7-0.1,1.1-0.2,1.3-0.2c0.3,0,0.5,0.1,0.6,0.2c0.2,0.2,0.3,0.3,0.3,0.5c0,0.3-0.2,1-0.5,2.1l-2,6.7c-0.3,0.9-0.4,1.5-0.4,1.8
					c0,0.4,0.1,0.7,0.4,0.9c0.3,0.2,0.6,0.4,1,0.4c0.6,0,1.3-0.3,1.9-0.8c0.9-0.7,1.8-1.6,2.4-2.6l-0.6-0.4
					c-0.6,0.8-1.1,1.5-1.7,1.9c-0.2,0.1-0.4,0.2-0.5,0.2c-0.1,0-0.2,0-0.3-0.1c-0.1-0.1-0.1-0.2-0.1-0.4c0-0.1,0.1-0.5,0.3-1.2
					L662.1,259z"/>
			</g>
		</g>
		<g>
			<g>
				<path id="XMLID_00000054972050421607527350000010855968808617832341_" class="st3" d="M661.9,253c-0.4,0-0.8,0.2-1.1,0.5
					c-0.3,0.3-0.4,0.6-0.4,1.1c0,0.4,0.2,0.8,0.4,1.1c0.3,0.3,0.7,0.4,1.1,0.4c0.4,0,0.8-0.1,1-0.4c0.3-0.3,0.4-0.7,0.4-1.1
					c0-0.4-0.1-0.8-0.4-1.1C662.7,253.1,662.3,253,661.9,253z"/>
			</g>
		</g>
		<g>
			<g>
				<path id="XMLID_00000138574784223403872880000013421475745208074651_" class="st3" d="M682.8,271.1c-0.2,0.1-0.3,0.2-0.4,0.2
					c-0.1,0-0.2,0-0.3-0.1c-0.1-0.1-0.1-0.2-0.1-0.4c0-0.2,0.1-0.6,0.3-1.3l1.9-6.3c0.3-1,0.4-1.8,0.4-2.4c0-0.5-0.2-1-0.5-1.3
					c-0.3-0.3-0.8-0.5-1.3-0.5c-0.9,0-1.9,0.4-2.9,1.3c-1,0.9-2.4,2.7-4.3,5.5l2-6.8l-5.2,0.9l0.1,0.5l0.6-0.1
					c0.3,0,0.5-0.1,0.7-0.1c0.3,0,0.5,0.1,0.6,0.3c0.2,0.2,0.3,0.4,0.3,0.6c0,0.2-0.2,0.9-0.5,2l-2.7,9.4h2.3l0.7-2.5
					c0.3-1,0.7-1.9,1.2-2.8c0.9-1.6,1.7-3,2.5-4c0.8-1,1.6-1.8,2.3-2.2c0.4-0.3,0.7-0.4,1-0.4c0.2,0,0.3,0.1,0.5,0.2
					c0.1,0.1,0.2,0.3,0.2,0.5c0,0.4-0.1,1-0.3,1.8l-1.7,6c-0.3,1.2-0.5,2-0.5,2.5c0,0.4,0.1,0.7,0.3,0.9c0.2,0.2,0.5,0.4,0.9,0.4
					c0.5,0,1-0.2,1.6-0.6c0.8-0.6,1.7-1.5,2.6-2.8l-0.5-0.3C683.9,270,683.3,270.7,682.8,271.1z"/>
			</g>
		</g>
		<g>
			<g>
				<path class="st3" d="M705.6,271.2c-0.2,0.1-0.4,0.2-0.5,0.2c-0.1,0-0.2,0-0.3-0.1c-0.1-0.1-0.2-0.2-0.2-0.4c0-0.1,0-0.2,0-0.3
					l0.3-1.4l2.9-10.2l-2.3,0.3L705,261c-0.2-0.7-0.5-1.3-0.9-1.6c-0.4-0.3-0.9-0.5-1.6-0.5c-1,0-2.1,0.4-3.2,1.2
					c-1.5,1.1-2.7,2.5-3.6,4.3c-1,1.8-1.5,3.4-1.5,5.1c0,1.1,0.3,1.9,0.8,2.5c0.5,0.6,1.2,0.9,1.9,0.9c0.8,0,1.6-0.3,2.4-0.8
					c1.1-0.7,2.3-1.9,3.6-3.6l-0.3,1.1c-0.2,0.8-0.3,1.5-0.3,1.9c0,0.5,0.1,0.7,0.3,1c0.2,0.2,0.5,0.3,1,0.3c0.6,0,1.3-0.3,2-0.8
					c0.7-0.6,1.5-1.4,2.1-2.4l-0.5-0.4C706.5,270.3,705.9,270.8,705.6,271.2z M701.8,268.7c-1.3,1.6-2.5,2.4-3.5,2.4
					c-0.5,0-0.8-0.2-1.2-0.6c-0.3-0.4-0.5-0.9-0.5-1.6c0-1.4,0.4-2.9,1.2-4.5c0.8-1.7,1.7-3,2.7-3.8c0.7-0.6,1.4-0.9,2-0.9
					c0.6,0,1,0.2,1.3,0.6c0.3,0.4,0.5,1,0.5,1.8C704.4,264.4,703.5,266.6,701.8,268.7z"/>
			</g>
		</g>
	</g>
	<g>
		<g>
			<g>
				<path id="XMLID_00000028298893406199501620000011152588188857851326_" class="st3" d="M879.9,446.4c-0.1-1-0.2-2.1-0.4-3.1
					c-0.1-1.1-0.2-2.2-0.4-3.3H879c-0.3,0.5-0.7,1.1-1,1.8c-0.4,0.7-0.7,1.3-1.1,1.9c-0.4,0.7-0.7,1.3-1,2c-0.4,0.6-0.7,1.2-1,1.8
					c-0.3,0.5-0.6,1.1-0.8,1.5c-0.2,0.4-0.4,0.7-0.5,1c-0.9-1.7-1.8-3.4-2.7-5c-0.8-1.6-1.7-3.3-2.5-5h-0.3c-0.1,1-0.2,2-0.3,3
					c-0.1,1.1-0.3,2.1-0.4,3.2c-0.2,1.1-0.3,2.2-0.5,3.3c-0.2,1-0.3,2.1-0.5,3c0.2,0,0.4,0,0.6,0c0.2,0,0.4,0,0.7,0
					c0-0.5,0-1.1,0.1-1.8c0.1-0.7,0.1-1.5,0.2-2.4c0.1-0.8,0.2-1.7,0.3-2.6c0.1-0.9,0.2-1.7,0.3-2.4h0.1c0.8,1.6,1.6,3.1,2.4,4.6
					c0.8,1.5,1.5,3.1,2.3,4.5h0.2c0.7-1.6,1.5-3.1,2.3-4.7c0.8-1.5,1.6-3,2.4-4.5h0c0.2,1.6,0.4,3.1,0.5,4.6c0.1,1.5,0.3,3,0.4,4.6
					c0.1,0,0.3,0,0.4,0h0.4h0.4c0.1,0,0.3,0,0.4,0c-0.1-1-0.3-2-0.4-3C880.1,448.5,880,447.4,879.9,446.4z"/>
			</g>
		</g>
		<g>
			<g>
				<path class="st3" d="M891.5,451.7c-0.3-0.3-0.6-0.7-0.9-1.1c-0.3-0.4-0.7-0.8-1-1.2c-0.3-0.4-0.7-0.8-1-1.2
					c-0.3-0.4-0.6-0.7-0.8-1.1c-0.3-0.3-0.5-0.6-0.6-0.8c0.3,0,0.8-0.1,1.2-0.3c0.4-0.1,0.8-0.4,1.2-0.6c0.4-0.3,0.7-0.6,0.9-1
					c0.3-0.4,0.4-0.9,0.4-1.5c0-0.5-0.1-1-0.3-1.3c-0.2-0.3-0.5-0.6-0.8-0.9c-0.4-0.2-0.8-0.4-1.2-0.5c-0.4-0.1-0.9-0.1-1.5-0.1
					c-0.3,0-0.6,0-1,0c-0.3,0-0.7,0-1,0c-0.4,0-0.7,0-1,0c-0.3,0-0.7-0.1-1-0.1c0,0.8,0.1,1.6,0.1,2.3c0,0.8,0.1,1.6,0.1,2.3v3.1
					c0,0.8,0,1.6-0.1,2.4c0,0.7-0.1,1.5-0.1,2.2c0.3,0,0.6,0,0.9,0c0.3,0,0.6,0,0.9,0c0-0.7-0.1-1.5-0.1-2.2c0-0.8,0-1.6,0-2.4v-1.3
					h0.7c0.4,0.4,0.8,0.9,1.3,1.4c0.5,0.6,0.9,1.1,1.4,1.7c0.4,0.6,0.8,1.1,1.2,1.6c0.4,0.5,0.7,0.9,0.8,1.1c0.2,0,0.3,0,0.5,0h0.5
					h0.6c0.2,0,0.4,0,0.5,0C892,452.3,891.8,452.1,891.5,451.7z M885.9,445.9c-0.2,0-0.4,0-0.7,0c-0.2,0-0.3,0-0.5-0.1v-1
					c0-0.7,0-1.3,0-2c0-0.7,0.1-1.3,0.1-1.9c0.2,0,0.4-0.1,0.7-0.1c0.3,0,0.6,0,1.1,0c0.3,0,0.6,0,1,0.1c0.3,0.1,0.6,0.2,0.9,0.4
					c0.3,0.2,0.5,0.4,0.7,0.7c0.2,0.3,0.3,0.7,0.3,1.1c0,0.5-0.1,1-0.3,1.4c-0.2,0.3-0.5,0.6-0.8,0.8c-0.4,0.2-0.7,0.3-1.1,0.5
					C886.6,445.9,886.3,445.9,885.9,445.9z"/>
			</g>
		</g>
		<g>
			<g>
				<path class="st3" d="M878.6,428.6c-9.8,0-17.8,8-17.8,17.8c0,9.9,8,17.8,17.8,17.8c9.9,0,17.8-8,17.8-17.8
					C896.5,436.6,888.5,428.6,878.6,428.6z M878.6,462.8c-9,0-16.3-7.3-16.3-16.3c0-9,7.3-16.3,16.3-16.3c9,0,16.3,7.3,16.3,16.3
					C894.9,455.5,887.6,462.8,878.6,462.8z"/>
			</g>
		</g>
		<g>
			<g>
				<path class="st3" d="M898,396.4l2.9-3.1h-4.2c-2.7,0-4.2,0-6.6-1l-1-0.4l-0.9,0.7c-30.9,23.7-61.2,38.1-95.2,45.5
					c-0.4,0.1-0.9,0.1-1.3,0.1c-2.7,0-4.8-1.3-5.1-2.5c-0.3-1.2,1.2-2.9,4.1-4.6c3.5-2.2,7.2-4.5,14.7-10.3c2.6-1.7,5.6-3.9,5.2-6.7
					c-0.2-1.7-1.7-2.7-3.3-3.4c3.3-2.4,3.5-4.7,3.3-6c-0.7-3.5-5.6-5.7-12.6-5.7c-1.2,0-2.4-0.1-3.6-0.1c-35.1,0-94,15.4-101.2,29.1
					c-12.7,4.2-30.5,9.6-42.4,9.6c-5.5,0-9.2-1.1-11-3.4c-1.3-1.6-1.7-3.9-1.2-6.9c20.6-9.5,36.4-18.6,49.7-28.4
					c8.9-6.1,14.5-13.4,18.1-23.8l0.1-0.3v-0.3c0-5-2.9-7.9-8-7.9c-1,0-2.2,0.1-3.4,0.3l-0.2,0l-0.1,0
					c-46.8,16.8-74.8,37.3-83.2,61.1c-9.6,3.9-15.9,5.5-21.7,5.5c-0.3,0-0.5,0-0.7,0c2.2-3,4.2-6.1,6.4-9.6l1.8-3
					c1.4-2.8,1.6-5.1,0.8-7c-0.9-2.1-3-3.5-5.5-4.5c1.6-1.4,2.3-3.1,2-4.7c-0.2-1.1-1.2-3.6-6.2-3.6c-3.2-0.2-6.3-0.2-9.2-0.2
					c-26.4,0-47.8,5.4-69.5,17.6c-5.6,3.1-8.5,8.1-8.1,14c0.6,8.6,7.6,16.9,13.8,19.2c5.5,2.1,11.5,3.1,17.7,3.1
					c11.4,0,24.2-3.5,40-11c2.1,0.2,4.2,0.3,6.3,0.3c9.6,0,19.8-1.8,31.2-5.5c2.3,9.8,9.8,14.8,22.5,14.8c15.1,0,35.8-6.7,59.5-15
					c3.5,6.3,9.3,11.2,16,13.3c2.4,0.6,5,0.9,7.8,0.9c2.7,0,5.4-0.3,7.8-0.9c10.1-3,19.9-6.9,29.4-10.8c3-1.2,6.1-2.5,9.2-3.7
					c-4.2,5.4-5.6,10-4.2,13.5c1.6,3.9,6.5,6.1,13.8,6.1c3.8,0,8-0.6,12.2-1.7C825,443.5,875.7,420.7,898,396.4z M657.6,397.5
					c0,0,21.5-14.9,29.8-17.5c0,0-11.6,12.9-23.8,19.6c-12.2,6.8-16.7,9.6-18,9.6C644.4,409.1,657.6,397.5,657.6,397.5z
					 M552.5,436.6c-10,3.3-16.3,4.1-19.8,4.1c-4.1,0-6.7-1-6.9-2.5c-0.4-3.9,9.8-12.5,31-17.8c-3.4,3.4-5.2,6.6-5.6,9.8
					C550.9,432.3,551.4,434.5,552.5,436.6z M761,422.8c-13.4,6.3-27.3,12.8-41.2,15.2c-0.4,0.1-0.8,0.1-1.2,0.1c-1,0-2.7-0.2-3-1.6
					c-0.4-1.5,0.9-3.9,3.5-5.3c17.2-8.8,36-11.7,54.2-14.6c0.6-0.1,1.3-0.2,1.9-0.3C770.4,418.4,765.6,420.7,761,422.8z"/>
			</g>
		</g>
		<g>
			<g>
				<path class="st3" d="M483,439.9c1.1-1.8,2.3-3.6,3.4-5.4c5.1-8,10-15.5,12.8-22.6c2-5,2-10.1,0-15.2
					c-3.8-9.5-10.3-14.3-16.1-17.9c-2.2-2-4.1-3-6.2-3c-2.1,0-4.1,1-6.4,3.2c-30.9,32.9-62,52.6-94.9,60.2c-1.1,0.2-2.1,0.3-2.8,0.3
					c-0.9,0-1.3-0.1-1.4-0.1h0c0-0.3,0.3-1.4,2.3-3.9c3.5-2.9,7.7-5.3,12.3-7.9c2.4-1.4,4.9-2.8,7.3-4.3c2-0.7,2.9-2.6,2.6-4.7
					c-0.3-1.9-1.7-3.9-3.9-5.3c2.8-1.5,4.2-3.3,4.1-5.3c-0.2-2.7-3.1-4.7-7.9-5.4c-4.1-0.7-8.1-1.1-12.4-1.1
					c-10.2,0-19.8,2-30.1,4.2c-4.5,0.9-9.1,1.9-14,2.7c-12.1,3-52,13.6-55.4,22.2c-0.1,0.4-0.3,0.8-0.3,1.2
					c-24.1,7.3-43.3,12.1-58.6,12.1c-7.3,0-13.2-1.1-17.9-3.3c-1.5-0.9-2.6-2.7-2.4-4.1c0.2-1.6,1.7-2.4,3-2.9
					c3.8-1.4,7.7-2.6,11.8-3.9c5.5-1.7,11.2-3.5,17.2-5.9c3,3.2,6.4,4.9,10.4,4.9c2.5,0,5.1-0.6,8.3-2c5.5-2.6,10.4-5.8,15.6-9.1
					c1.8-1.2,3.7-2.4,5.7-3.6c1.8-1,1.7-3.8,1.1-5.9c-1.1-3.8-4.5-7.9-10.7-7.9c-0.6,0-1.1,0-1.8,0.1c-24.8,3.3-58.8,10.2-79.3,24.3
					c-27.8,14.8-58.7,22.6-94.3,23.9l-1.8,0.1v1.8c0,6.5,3.2,8.9,5.9,9.8l0.2,0.1h0.2c4.8,0.4,9.6,0.6,14.3,0.6
					c25.9,0,49.7-5.6,72.9-17.1c5.7,9.7,15.9,14.6,30.3,14.6c17.8,0,39.3-7.5,55-13c4.7-1.7,8.9-3.1,12.5-4.2
					c4.9,7.7,10.2,12,16.7,13.4c2.3,1,4.4,1.4,6.5,1.4c2,0,3.9-0.4,6.3-0.8c0.8-0.2,1.7-0.3,2.9-0.6c11.6-3.5,24.6-7.7,40.3-13.4
					c-3.8,4.9-5.2,9.2-3.8,12.5c1,2.6,4,5.7,12.5,5.7c0.9,0,1.8,0,2.8-0.1c61.6-5.7,86.8-30.3,111.2-54.1l1.5-1.4
					c1-0.9,2.2-1.4,3.4-1.4c0.8,0,1.4,0.3,1.8,0.7c0.3,0.4,0.4,1.3,0,2.3c-3.4,11.9-10.5,22-16.7,30.9c-2.1,3-4.1,5.9-5.8,8.5
					c-1.3,1.6-2.9,4-2.1,6.3c0.6,1.7,2.2,2.8,4.6,3.4c3,1.2,6.2,1.6,9.2,1.9c2.9,0.3,5.7,0.5,8.3,1.6c4.1,1.5,6.2,2.8,6.7,4
					c0.4,1-0.2,2.7-1.3,5c-15.4,34.9-21.6,70.2-25.7,100.1c-4.7,26.8-1.8,53.5,1.8,80.8l0.6,5.1l2.8-4.3c3.1-4.8,7.1-11.8,11.1-23.3
					l0.2-0.4l0-0.4c-9.4-82.5,12.9-112.9,32.6-139.7c7.2-10.1,13.9-21.8,2.5-33.4C498.9,446.3,492,442.6,483,439.9z M333.6,430.1
					c-9.7,3.9-19.7,8-29.7,11.4c-0.5,0.2-1,0.3-1.5,0.3c-1.9,0-2.8-1.4-2.9-2.6c-0.2-1.5,0.6-3.6,3.8-4.5
					c16.6-6.3,34.2-11,56.6-14.9C351,422.9,342.2,426.6,333.6,430.1z"/>
			</g>
		</g>
	</g>
	<g>
		<g>
			<g>
				<path class="st0" d="M488.2,757.9c-261.2,0-473.7-167.5-473.7-373.3c0-205.8,212.5-373.3,473.7-373.3
					C749.4,11.4,962,178.8,962,384.6C962,590.4,749.4,757.9,488.2,757.9z M488.2,31.1c-250.3,0-454,158.6-454,353.5
					c0,194.9,203.7,353.5,454,353.5c250.4,0,454-158.6,454-353.5C942.2,189.7,738.5,31.1,488.2,31.1z"/>
			</g>
		</g>
	</g>
</g>
</svg>
